# xmcd
#
# Track frame offsets: 
#        150
#        14301
#        36411
#        52829
#        67335
#        87028
#        100581
#        112643
#        126549
#        139224
#        150744
#        163709
#        176977
#        192423
#        208837
#        218786
#        249203
#        266183
#        280150
#
# Disc length: 3944 seconds
#
# Revision: 0
# Processed by: cddbd v1.5.2PL0 Copyright (c) Steve Scherf et al.
# Submitted via: ExactAudioCopy v0.95b3
#
DISCID=190f6613
DTITLE=Various Artist - Blues Anthology
DYEAR=2007
DGENRE=Blues
TTITLE0=01 Luther Allison/Soul fixing man
TTITLE1=02 A.CollinsR.CrayJ.Copeland/T-Bone shuffle
TTITLE2=03 Lucky Petterson/Six O'clock blues
TTITLE3=04 Big Walter Horton with Carry Bell/Tell me baby
TTITLE4=05 TerryWinterDixon/I got my eyes on you
TTITLE5=06 T-Bone Walker/Call it stormy monday but tuesday is as bad
TTITLE6=07 Lonnie Johnson/Mr Johnson blues
TTITLE7=08 Menphis Slim/Messin around
TTITLE8=09 Big Mama Thorton/Hound dog
TTITLE9=10 Etta James/I'd rather got blind
TTITLE10=11 Ruth Brown/Mama he treats your daughter mean
TTITLE11=12 Taj Mahal/Statesboro blues
TTITLE12=13 Johnny Winter/Johnny guitar
TTITLE13=14 Stevie Ray Vaughan/Pride and joy
TTITLE14=15 Jimmie Vaughan/Little son big gun
TTITLE15=16 Rory Gallagher/Bullfrog blues (live)
TTITLE16=17 Charlie Mussulwhite/Darkest hour
TTITLE17=18 Canned Heat/On the road again
TTITLE18=19 Screamin Jay Hawkins/I put a spell on you
EXTD=
EXTT0=
EXTT1=
EXTT2=
EXTT3=
EXTT4=
EXTT5=
EXTT6=
EXTT7=
EXTT8=
EXTT9=
EXTT10=
EXTT11=
EXTT12=
EXTT13=
EXTT14=
EXTT15=
EXTT16=
EXTT17=
EXTT18=
PLAYORDER=
